<svg aria-roledescription="er" viewBox="0 0 181.7571563720703 364" style="max-width: 181.757px; background-color: white;" xmlns:xlink="http://www.w3.org/1999/xlink" xmlns="http://www.w3.org/2000/svg" width="100%" id="mermaid-0"><style>#mermaid-0{font-family:"trebuchet ms",verdana,arial,sans-serif;font-size:16px;fill:#000000;}#mermaid-0 .error-icon{fill:#552222;}#mermaid-0 .error-text{fill:#552222;stroke:#552222;}#mermaid-0 .edge-thickness-normal{stroke-width:2px;}#mermaid-0 .edge-thickness-thick{stroke-width:3.5px;}#mermaid-0 .edge-pattern-solid{stroke-dasharray:0;}#mermaid-0 .edge-pattern-dashed{stroke-dasharray:3;}#mermaid-0 .edge-pattern-dotted{stroke-dasharray:2;}#mermaid-0 .marker{fill:#000000;stroke:#000000;}#mermaid-0 .marker.cross{stroke:#000000;}#mermaid-0 svg{font-family:"trebuchet ms",verdana,arial,sans-serif;font-size:16px;}#mermaid-0 .entityBox{fill:#cde498;stroke:#13540c;}#mermaid-0 .attributeBoxOdd{fill:#ffffff;stroke:#13540c;}#mermaid-0 .attributeBoxEven{fill:#f2f2f2;stroke:#13540c;}#mermaid-0 .relationshipLabelBox{fill:hsl(78.1578947368, 58.4615384615%, 84.5098039216%);opacity:0.7;background-color:hsl(78.1578947368, 58.4615384615%, 84.5098039216%);}#mermaid-0 .relationshipLabelBox rect{opacity:0.5;}#mermaid-0 .relationshipLine{stroke:#000000;}#mermaid-0 .entityTitleText{text-anchor:middle;font-size:18px;fill:#000000;}#mermaid-0 :root{--mermaid-font-family:"trebuchet ms",verdana,arial,sans-serif;}</style><g/><defs><marker orient="auto" markerHeight="18" markerWidth="18" refY="9" refX="0" id="ONLY_ONE_START"><path d="M9,0 L9,18 M15,0 L15,18" fill="none" stroke="gray"/></marker></defs><defs><marker orient="auto" markerHeight="18" markerWidth="18" refY="9" refX="18" id="ONLY_ONE_END"><path d="M3,0 L3,18 M9,0 L9,18" fill="none" stroke="gray"/></marker></defs><defs><marker orient="auto" markerHeight="18" markerWidth="30" refY="9" refX="0" id="ZERO_OR_ONE_START"><circle r="6" cy="9" cx="21" fill="white" stroke="gray"/><path d="M9,0 L9,18" fill="none" stroke="gray"/></marker></defs><defs><marker orient="auto" markerHeight="18" markerWidth="30" refY="9" refX="30" id="ZERO_OR_ONE_END"><circle r="6" cy="9" cx="9" fill="white" stroke="gray"/><path d="M21,0 L21,18" fill="none" stroke="gray"/></marker></defs><defs><marker orient="auto" markerHeight="36" markerWidth="45" refY="18" refX="18" id="ONE_OR_MORE_START"><path d="M0,18 Q 18,0 36,18 Q 18,36 0,18 M42,9 L42,27" fill="none" stroke="gray"/></marker></defs><defs><marker orient="auto" markerHeight="36" markerWidth="45" refY="18" refX="27" id="ONE_OR_MORE_END"><path d="M3,9 L3,27 M9,18 Q27,0 45,18 Q27,36 9,18" fill="none" stroke="gray"/></marker></defs><defs><marker orient="auto" markerHeight="36" markerWidth="57" refY="18" refX="18" id="ZERO_OR_MORE_START"><circle r="6" cy="18" cx="48" fill="white" stroke="gray"/><path d="M0,18 Q18,0 36,18 Q18,36 0,18" fill="none" stroke="gray"/></marker></defs><defs><marker orient="auto" markerHeight="36" markerWidth="57" refY="18" refX="39" id="ZERO_OR_MORE_END"><circle r="6" cy="18" cx="9" fill="white" stroke="gray"/><path d="M21,18 Q39,0 57,18 Q39,36 21,18" fill="none" stroke="gray"/></marker></defs><path style="stroke: gray; fill: none;" marker-start="url(#ZERO_OR_MORE_START)" marker-end="url(#ONLY_ONE_END)" d="M90.87857818603516,88L90.87857818603516,96.33333333333333C90.87857818603516,104.66666666666667,90.87857818603516,121.33333333333333,90.87857818603516,138C90.87857818603516,154.66666666666666,90.87857818603516,171.33333333333334,90.87857818603516,179.66666666666666L90.87857818603516,188" class="er relationshipLine"/><g transform="translate(20,188 )" id="entity-question-14fd4578-9092-4934-8030-a9d26180f4c0"><rect height="156" width="141.7571563720703" y="0" x="0" class="er entityBox"/><text style="dominant-baseline: middle; text-anchor: middle; font-size: 12px;" transform="translate(70.87857818603516,12)" y="0" x="0" id="text-entity-question-14fd4578-9092-4934-8030-a9d26180f4c0" class="er entityLabel">question</text><rect height="22" width="37.39605712890625" y="24" x="0" class="er attributeBoxOdd"/><text style="dominant-baseline: middle; font-size: 10.2px;" transform="translate(5,35)" y="0" x="0" id="text-entity-question-14fd4578-9092-4934-8030-a9d26180f4c0-attr-1-type" class="er entityLabel">Int</text><rect height="22" width="81.67341613769531" y="24" x="37.39605712890625" class="er attributeBoxOdd"/><text style="dominant-baseline: middle; font-size: 10.2px;" transform="translate(42.39605712890625,35)" y="0" x="0" id="text-entity-question-14fd4578-9092-4934-8030-a9d26180f4c0-attr-1-name" class="er entityLabel">id</text><rect height="22" width="22.68768310546875" y="24" x="119.06947326660156" class="er attributeBoxOdd"/><text style="dominant-baseline: middle; font-size: 10.2px;" transform="translate(124.06947326660156,35)" y="0" x="0" id="text-entity-question-14fd4578-9092-4934-8030-a9d26180f4c0-attr-1-key" class="er entityLabel">PK</text><rect height="22" width="37.39605712890625" y="46" x="0" class="er attributeBoxEven"/><text style="dominant-baseline: middle; font-size: 10.2px;" transform="translate(5,57)" y="0" x="0" id="text-entity-question-14fd4578-9092-4934-8030-a9d26180f4c0-attr-2-type" class="er entityLabel">String</text><rect height="22" width="81.67341613769531" y="46" x="37.39605712890625" class="er attributeBoxEven"/><text style="dominant-baseline: middle; font-size: 10.2px;" transform="translate(42.39605712890625,57)" y="0" x="0" id="text-entity-question-14fd4578-9092-4934-8030-a9d26180f4c0-attr-2-name" class="er entityLabel">category</text><rect height="22" width="22.68768310546875" y="46" x="119.06947326660156" class="er attributeBoxEven"/><text style="dominant-baseline: middle; font-size: 10.2px;" transform="translate(124.06947326660156,57)" y="0" x="0" id="text-entity-question-14fd4578-9092-4934-8030-a9d26180f4c0-attr-2-key" class="er entityLabel"/><rect height="22" width="37.39605712890625" y="68" x="0" class="er attributeBoxOdd"/><text style="dominant-baseline: middle; font-size: 10.2px;" transform="translate(5,79)" y="0" x="0" id="text-entity-question-14fd4578-9092-4934-8030-a9d26180f4c0-attr-3-type" class="er entityLabel">String</text><rect height="22" width="81.67341613769531" y="68" x="37.39605712890625" class="er attributeBoxOdd"/><text style="dominant-baseline: middle; font-size: 10.2px;" transform="translate(42.39605712890625,79)" y="0" x="0" id="text-entity-question-14fd4578-9092-4934-8030-a9d26180f4c0-attr-3-name" class="er entityLabel">type</text><rect height="22" width="22.68768310546875" y="68" x="119.06947326660156" class="er attributeBoxOdd"/><text style="dominant-baseline: middle; font-size: 10.2px;" transform="translate(124.06947326660156,79)" y="0" x="0" id="text-entity-question-14fd4578-9092-4934-8030-a9d26180f4c0-attr-3-key" class="er entityLabel"/><rect height="22" width="37.39605712890625" y="90" x="0" class="er attributeBoxEven"/><text style="dominant-baseline: middle; font-size: 10.2px;" transform="translate(5,101)" y="0" x="0" id="text-entity-question-14fd4578-9092-4934-8030-a9d26180f4c0-attr-4-type" class="er entityLabel">String</text><rect height="22" width="81.67341613769531" y="90" x="37.39605712890625" class="er attributeBoxEven"/><text style="dominant-baseline: middle; font-size: 10.2px;" transform="translate(42.39605712890625,101)" y="0" x="0" id="text-entity-question-14fd4578-9092-4934-8030-a9d26180f4c0-attr-4-name" class="er entityLabel">difficulty</text><rect height="22" width="22.68768310546875" y="90" x="119.06947326660156" class="er attributeBoxEven"/><text style="dominant-baseline: middle; font-size: 10.2px;" transform="translate(124.06947326660156,101)" y="0" x="0" id="text-entity-question-14fd4578-9092-4934-8030-a9d26180f4c0-attr-4-key" class="er entityLabel"/><rect height="22" width="37.39605712890625" y="112" x="0" class="er attributeBoxOdd"/><text style="dominant-baseline: middle; font-size: 10.2px;" transform="translate(5,123)" y="0" x="0" id="text-entity-question-14fd4578-9092-4934-8030-a9d26180f4c0-attr-5-type" class="er entityLabel">String</text><rect height="22" width="81.67341613769531" y="112" x="37.39605712890625" class="er attributeBoxOdd"/><text style="dominant-baseline: middle; font-size: 10.2px;" transform="translate(42.39605712890625,123)" y="0" x="0" id="text-entity-question-14fd4578-9092-4934-8030-a9d26180f4c0-attr-5-name" class="er entityLabel">question</text><rect height="22" width="22.68768310546875" y="112" x="119.06947326660156" class="er attributeBoxOdd"/><text style="dominant-baseline: middle; font-size: 10.2px;" transform="translate(124.06947326660156,123)" y="0" x="0" id="text-entity-question-14fd4578-9092-4934-8030-a9d26180f4c0-attr-5-key" class="er entityLabel"/><rect height="22" width="37.39605712890625" y="134" x="0" class="er attributeBoxEven"/><text style="dominant-baseline: middle; font-size: 10.2px;" transform="translate(5,145)" y="0" x="0" id="text-entity-question-14fd4578-9092-4934-8030-a9d26180f4c0-attr-6-type" class="er entityLabel">String</text><rect height="22" width="81.67341613769531" y="134" x="37.39605712890625" class="er attributeBoxEven"/><text style="dominant-baseline: middle; font-size: 10.2px;" transform="translate(42.39605712890625,145)" y="0" x="0" id="text-entity-question-14fd4578-9092-4934-8030-a9d26180f4c0-attr-6-name" class="er entityLabel">correct_answer</text><rect height="22" width="22.68768310546875" y="134" x="119.06947326660156" class="er attributeBoxEven"/><text style="dominant-baseline: middle; font-size: 10.2px;" transform="translate(124.06947326660156,145)" y="0" x="0" id="text-entity-question-14fd4578-9092-4934-8030-a9d26180f4c0-attr-6-key" class="er entityLabel"/></g><g transform="translate(28.669593811035156,20 )" id="entity-incorrectanswer-db7258cb-b175-4115-8211-276567f313d5"><rect height="68" width="124.41796875" y="0" x="0" class="er entityBox"/><text style="dominant-baseline: middle; text-anchor: middle; font-size: 12px;" transform="translate(62.208984375,12)" y="0" x="0" id="text-entity-incorrectanswer-db7258cb-b175-4115-8211-276567f313d5" class="er entityLabel">incorrect_answer</text><rect height="22" width="44.43603006998698" y="24" x="0" class="er attributeBoxOdd"/><text style="dominant-baseline: middle; font-size: 10.2px;" transform="translate(5,35)" y="0" x="0" id="text-entity-incorrectanswer-db7258cb-b175-4115-8211-276567f313d5-attr-1-type" class="er entityLabel">Int</text><rect height="22" width="50.25428263346354" y="24" x="44.43603006998698" class="er attributeBoxOdd"/><text style="dominant-baseline: middle; font-size: 10.2px;" transform="translate(49.43603006998698,35)" y="0" x="0" id="text-entity-incorrectanswer-db7258cb-b175-4115-8211-276567f313d5-attr-1-name" class="er entityLabel">id</text><rect height="22" width="29.72765604654948" y="24" x="94.69031270345052" class="er attributeBoxOdd"/><text style="dominant-baseline: middle; font-size: 10.2px;" transform="translate(99.69031270345052,35)" y="0" x="0" id="text-entity-incorrectanswer-db7258cb-b175-4115-8211-276567f313d5-attr-1-key" class="er entityLabel">PK</text><rect height="22" width="44.43603006998698" y="46" x="0" class="er attributeBoxEven"/><text style="dominant-baseline: middle; font-size: 10.2px;" transform="translate(5,57)" y="0" x="0" id="text-entity-incorrectanswer-db7258cb-b175-4115-8211-276567f313d5-attr-2-type" class="er entityLabel">String</text><rect height="22" width="50.25428263346354" y="46" x="44.43603006998698" class="er attributeBoxEven"/><text style="dominant-baseline: middle; font-size: 10.2px;" transform="translate(49.43603006998698,57)" y="0" x="0" id="text-entity-incorrectanswer-db7258cb-b175-4115-8211-276567f313d5-attr-2-name" class="er entityLabel">answer</text><rect height="22" width="29.72765604654948" y="46" x="94.69031270345052" class="er attributeBoxEven"/><text style="dominant-baseline: middle; font-size: 10.2px;" transform="translate(99.69031270345052,57)" y="0" x="0" id="text-entity-incorrectanswer-db7258cb-b175-4115-8211-276567f313d5-attr-2-key" class="er entityLabel"/></g><rect height="14" width="46.263671875" y="131" x="67.74674224853516" class="er relationshipLabelBox"/><text style="text-anchor: middle; dominant-baseline: middle; font-size: 12px;" y="138" x="90.87857818603516" id="rel1" class="er relationshipLabel">question</text></svg>